<svg xmlns="http://www.w3.org/2000/svg" xmlns:xlink="http://www.w3.org/1999/xlink" width="500" zoomAndPan="magnify" viewBox="0 0 375 374.999991" height="500" preserveAspectRatio="xMidYMid meet" version="1.0"><defs><g/><clipPath id="d5e8287b2e"><path d="M 120.125 84.097656 L 255.125 84.097656 L 255.125 208.542969 L 120.125 208.542969 Z M 120.125 84.097656 " clip-rule="nonzero"/></clipPath></defs><rect x="-37.5" width="450" fill="#ffffff" y="-37.499999" height="449.999989" fill-opacity="1"/><rect x="-37.5" width="450" fill="#ffffff" y="-37.499999" height="449.999989" fill-opacity="1"/><rect x="-37.5" width="450" fill="#ffffff" y="-37.499999" height="449.999989" fill-opacity="1"/><g fill="#005485" fill-opacity="1"><g transform="translate(47.464033, 255.53339)"><g><path d="M 2.734375 -18.171875 L 10.390625 -18.171875 C 12.304688 -18.171875 14.007812 -17.789062 15.5 -17.03125 C 16.988281 -16.269531 18.144531 -15.203125 18.96875 -13.828125 C 19.789062 -12.453125 20.203125 -10.875 20.203125 -9.09375 C 20.203125 -7.3125 19.789062 -5.726562 18.96875 -4.34375 C 18.144531 -2.96875 16.988281 -1.898438 15.5 -1.140625 C 14.007812 -0.378906 12.304688 0 10.390625 0 L 2.734375 0 Z M 10.234375 -2.265625 C 11.703125 -2.265625 12.992188 -2.546875 14.109375 -3.109375 C 15.222656 -3.679688 16.082031 -4.484375 16.6875 -5.515625 C 17.300781 -6.546875 17.609375 -7.738281 17.609375 -9.09375 C 17.609375 -10.4375 17.300781 -11.625 16.6875 -12.65625 C 16.082031 -13.6875 15.222656 -14.488281 14.109375 -15.0625 C 12.992188 -15.632812 11.703125 -15.921875 10.234375 -15.921875 L 5.328125 -15.921875 L 5.328125 -2.265625 Z M 10.234375 -2.265625 "/></g></g></g><g fill="#005485" fill-opacity="1"><g transform="translate(79.303253, 255.53339)"><g><path d="M 15.921875 -2.265625 L 15.921875 0 L 2.734375 0 L 2.734375 -18.171875 L 15.5625 -18.171875 L 15.5625 -15.921875 L 5.328125 -15.921875 L 5.328125 -10.328125 L 14.4375 -10.328125 L 14.4375 -8.125 L 5.328125 -8.125 L 5.328125 -2.265625 Z M 15.921875 -2.265625 "/></g></g></g><g fill="#005485" fill-opacity="1"><g transform="translate(107.091346, 255.53339)"><g><path d="M 8.03125 0.203125 C 6.65625 0.203125 5.332031 -0.00390625 4.0625 -0.421875 C 2.789062 -0.847656 1.789062 -1.398438 1.0625 -2.078125 L 2.03125 -4.109375 C 2.71875 -3.484375 3.601562 -2.972656 4.6875 -2.578125 C 5.769531 -2.191406 6.882812 -2 8.03125 -2 C 9.53125 -2 10.648438 -2.253906 11.390625 -2.765625 C 12.140625 -3.273438 12.515625 -3.953125 12.515625 -4.796875 C 12.515625 -5.421875 12.3125 -5.925781 11.90625 -6.3125 C 11.5 -6.707031 10.992188 -7.007812 10.390625 -7.21875 C 9.796875 -7.425781 8.957031 -7.660156 7.875 -7.921875 C 6.5 -8.242188 5.390625 -8.570312 4.546875 -8.90625 C 3.710938 -9.238281 2.992188 -9.742188 2.390625 -10.421875 C 1.796875 -11.109375 1.5 -12.03125 1.5 -13.1875 C 1.5 -14.15625 1.753906 -15.03125 2.265625 -15.8125 C 2.773438 -16.59375 3.550781 -17.21875 4.59375 -17.6875 C 5.632812 -18.15625 6.925781 -18.390625 8.46875 -18.390625 C 9.539062 -18.390625 10.59375 -18.25 11.625 -17.96875 C 12.664062 -17.695312 13.5625 -17.300781 14.3125 -16.78125 L 13.453125 -14.703125 C 12.691406 -15.179688 11.878906 -15.546875 11.015625 -15.796875 C 10.148438 -16.046875 9.300781 -16.171875 8.46875 -16.171875 C 7 -16.171875 5.894531 -15.898438 5.15625 -15.359375 C 4.414062 -14.828125 4.046875 -14.140625 4.046875 -13.296875 C 4.046875 -12.671875 4.253906 -12.160156 4.671875 -11.765625 C 5.085938 -11.378906 5.601562 -11.078125 6.21875 -10.859375 C 6.832031 -10.648438 7.664062 -10.425781 8.71875 -10.1875 C 10.09375 -9.851562 11.191406 -9.519531 12.015625 -9.1875 C 12.847656 -8.863281 13.5625 -8.363281 14.15625 -7.6875 C 14.757812 -7.007812 15.0625 -6.097656 15.0625 -4.953125 C 15.0625 -4.003906 14.800781 -3.132812 14.28125 -2.34375 C 13.757812 -1.5625 12.96875 -0.941406 11.90625 -0.484375 C 10.851562 -0.0234375 9.5625 0.203125 8.03125 0.203125 Z M 8.03125 0.203125 "/></g></g></g><g fill="#005485" fill-opacity="1"><g transform="translate(133.606956, 255.53339)"><g><path d="M 2.734375 -18.171875 L 5.328125 -18.171875 L 5.328125 0 L 2.734375 0 Z M 2.734375 -18.171875 "/></g></g></g><g fill="#005485" fill-opacity="1"><g transform="translate(152.046283, 255.53339)"><g><path d="M 15.328125 -9.1875 L 17.8125 -9.1875 L 17.8125 -2.109375 C 16.914062 -1.359375 15.867188 -0.785156 14.671875 -0.390625 C 13.472656 0.00390625 12.226562 0.203125 10.9375 0.203125 C 9.101562 0.203125 7.445312 -0.195312 5.96875 -1 C 4.5 -1.800781 3.34375 -2.90625 2.5 -4.3125 C 1.664062 -5.726562 1.25 -7.320312 1.25 -9.09375 C 1.25 -10.851562 1.664062 -12.441406 2.5 -13.859375 C 3.34375 -15.285156 4.503906 -16.394531 5.984375 -17.1875 C 7.460938 -17.988281 9.128906 -18.390625 10.984375 -18.390625 C 12.441406 -18.390625 13.757812 -18.148438 14.9375 -17.671875 C 16.125 -17.191406 17.132812 -16.492188 17.96875 -15.578125 L 16.359375 -13.96875 C 14.898438 -15.375 13.144531 -16.078125 11.09375 -16.078125 C 9.707031 -16.078125 8.460938 -15.773438 7.359375 -15.171875 C 6.265625 -14.578125 5.40625 -13.75 4.78125 -12.6875 C 4.15625 -11.625 3.84375 -10.425781 3.84375 -9.09375 C 3.84375 -7.769531 4.15625 -6.578125 4.78125 -5.515625 C 5.40625 -4.453125 6.265625 -3.617188 7.359375 -3.015625 C 8.460938 -2.410156 9.695312 -2.109375 11.0625 -2.109375 C 12.6875 -2.109375 14.109375 -2.492188 15.328125 -3.265625 Z M 15.328125 -9.1875 "/></g></g></g><g fill="#005485" fill-opacity="1"><g transform="translate(182.483193, 255.53339)"><g><path d="M 18.359375 -18.171875 L 18.359375 0 L 16.234375 0 L 5.328125 -13.5625 L 5.328125 0 L 2.734375 0 L 2.734375 -18.171875 L 4.859375 -18.171875 L 15.765625 -4.625 L 15.765625 -18.171875 Z M 18.359375 -18.171875 "/></g></g></g><g fill="#005485" fill-opacity="1"><g transform="translate(213.95885, 255.53339)"><g/></g></g><g fill="#005485" fill-opacity="1"><g transform="translate(231.333452, 255.53339)"><g><path d="M 18.359375 -18.171875 L 18.359375 0 L 15.765625 0 L 15.765625 -8.109375 L 5.328125 -8.109375 L 5.328125 0 L 2.734375 0 L 2.734375 -18.171875 L 5.328125 -18.171875 L 5.328125 -10.359375 L 15.765625 -10.359375 L 15.765625 -18.171875 Z M 18.359375 -18.171875 "/></g></g></g><g fill="#005485" fill-opacity="1"><g transform="translate(262.809097, 255.53339)"><g><path d="M 2.734375 -18.171875 L 5.328125 -18.171875 L 5.328125 0 L 2.734375 0 Z M 2.734375 -18.171875 "/></g></g></g><g fill="#005485" fill-opacity="1"><g transform="translate(281.248411, 255.53339)"><g><path d="M 18.515625 -18.171875 L 10.546875 0 L 7.96875 0 L -0.03125 -18.171875 L 2.78125 -18.171875 L 9.328125 -3.25 L 15.921875 -18.171875 Z M 18.515625 -18.171875 "/></g></g></g><g fill="#005485" fill-opacity="1"><g transform="translate(310.127185, 255.53339)"><g><path d="M 15.921875 -2.265625 L 15.921875 0 L 2.734375 0 L 2.734375 -18.171875 L 15.5625 -18.171875 L 15.5625 -15.921875 L 5.328125 -15.921875 L 5.328125 -10.328125 L 14.4375 -10.328125 L 14.4375 -8.125 L 5.328125 -8.125 L 5.328125 -2.265625 Z M 15.921875 -2.265625 "/></g></g></g><g fill="#092c4c" fill-opacity="1"><g transform="translate(16.71726, 284.985509)"><g><path d="M 11.21875 -6.875 L 8.96875 0 L 7.25 0 L 5.734375 -4.65625 L 4.171875 0 L 2.484375 0 L 0.21875 -6.875 L 1.875 -6.875 L 3.421875 -2.046875 L 5.046875 -6.875 L 6.515625 -6.875 L 8.09375 -2 L 9.6875 -6.875 Z M 11.21875 -6.875 "/></g></g></g><g fill="#092c4c" fill-opacity="1"><g transform="translate(36.002444, 284.985509)"><g><path d="M 6.140625 -1.28125 L 6.140625 0 L 0.8125 0 L 0.8125 -6.875 L 6.015625 -6.875 L 6.015625 -5.609375 L 2.390625 -5.609375 L 2.390625 -4.109375 L 5.59375 -4.109375 L 5.59375 -2.875 L 2.390625 -2.875 L 2.390625 -1.28125 Z M 6.140625 -1.28125 "/></g></g></g><g fill="#092c4c" fill-opacity="1"><g transform="translate(50.456048, 284.985509)"><g><path d="M 5.875 -3.578125 C 6.257812 -3.453125 6.5625 -3.242188 6.78125 -2.953125 C 7.007812 -2.660156 7.125 -2.300781 7.125 -1.875 C 7.125 -1.269531 6.890625 -0.804688 6.421875 -0.484375 C 5.953125 -0.160156 5.269531 0 4.375 0 L 0.8125 0 L 0.8125 -6.875 L 4.171875 -6.875 C 5.015625 -6.875 5.660156 -6.710938 6.109375 -6.390625 C 6.554688 -6.078125 6.78125 -5.644531 6.78125 -5.09375 C 6.78125 -4.757812 6.695312 -4.457031 6.53125 -4.1875 C 6.375 -3.925781 6.15625 -3.722656 5.875 -3.578125 Z M 2.390625 -5.6875 L 2.390625 -4.0625 L 3.984375 -4.0625 C 4.367188 -4.0625 4.660156 -4.128906 4.859375 -4.265625 C 5.066406 -4.398438 5.171875 -4.601562 5.171875 -4.875 C 5.171875 -5.144531 5.066406 -5.347656 4.859375 -5.484375 C 4.660156 -5.617188 4.367188 -5.6875 3.984375 -5.6875 Z M 4.25 -1.203125 C 4.675781 -1.203125 4.992188 -1.269531 5.203125 -1.40625 C 5.410156 -1.539062 5.515625 -1.753906 5.515625 -2.046875 C 5.515625 -2.617188 5.09375 -2.90625 4.25 -2.90625 L 2.390625 -2.90625 L 2.390625 -1.203125 Z M 4.25 -1.203125 "/></g></g></g><g fill="#092c4c" fill-opacity="1"><g transform="translate(65.832769, 284.985509)"><g/></g></g><g fill="#092c4c" fill-opacity="1"><g transform="translate(76.476111, 284.985509)"><g><path d="M 0.8125 -6.875 L 3.9375 -6.875 C 4.6875 -6.875 5.347656 -6.734375 5.921875 -6.453125 C 6.492188 -6.171875 6.9375 -5.769531 7.25 -5.25 C 7.570312 -4.726562 7.734375 -4.125 7.734375 -3.4375 C 7.734375 -2.75 7.570312 -2.144531 7.25 -1.625 C 6.9375 -1.113281 6.492188 -0.710938 5.921875 -0.421875 C 5.347656 -0.140625 4.6875 0 3.9375 0 L 0.8125 0 Z M 3.859375 -1.3125 C 4.546875 -1.3125 5.09375 -1.5 5.5 -1.875 C 5.914062 -2.257812 6.125 -2.78125 6.125 -3.4375 C 6.125 -4.09375 5.914062 -4.613281 5.5 -5 C 5.09375 -5.382812 4.546875 -5.578125 3.859375 -5.578125 L 2.40625 -5.578125 L 2.40625 -1.3125 Z M 3.859375 -1.3125 "/></g></g></g><g fill="#092c4c" fill-opacity="1"><g transform="translate(92.451863, 284.985509)"><g><path d="M 6.140625 -1.28125 L 6.140625 0 L 0.8125 0 L 0.8125 -6.875 L 6.015625 -6.875 L 6.015625 -5.609375 L 2.390625 -5.609375 L 2.390625 -4.109375 L 5.59375 -4.109375 L 5.59375 -2.875 L 2.390625 -2.875 L 2.390625 -1.28125 Z M 6.140625 -1.28125 "/></g></g></g><g fill="#092c4c" fill-opacity="1"><g transform="translate(106.905463, 284.985509)"><g><path d="M 7.4375 -6.875 L 4.453125 0 L 2.875 0 L -0.09375 -6.875 L 1.625 -6.875 L 3.71875 -1.96875 L 5.84375 -6.875 Z M 7.4375 -6.875 "/></g></g></g><g fill="#092c4c" fill-opacity="1"><g transform="translate(122.095595, 284.985509)"><g><path d="M 6.140625 -1.28125 L 6.140625 0 L 0.8125 0 L 0.8125 -6.875 L 6.015625 -6.875 L 6.015625 -5.609375 L 2.390625 -5.609375 L 2.390625 -4.109375 L 5.59375 -4.109375 L 5.59375 -2.875 L 2.390625 -2.875 L 2.390625 -1.28125 Z M 6.140625 -1.28125 "/></g></g></g><g fill="#092c4c" fill-opacity="1"><g transform="translate(136.549196, 284.985509)"><g><path d="M 0.8125 -6.875 L 2.40625 -6.875 L 2.40625 -1.296875 L 5.859375 -1.296875 L 5.859375 0 L 0.8125 0 Z M 0.8125 -6.875 "/></g></g></g><g fill="#092c4c" fill-opacity="1"><g transform="translate(150.344842, 284.985509)"><g><path d="M 4.140625 0.125 C 3.429688 0.125 2.789062 -0.03125 2.21875 -0.34375 C 1.644531 -0.65625 1.195312 -1.078125 0.875 -1.609375 C 0.550781 -2.148438 0.390625 -2.757812 0.390625 -3.4375 C 0.390625 -4.113281 0.550781 -4.722656 0.875 -5.265625 C 1.195312 -5.804688 1.644531 -6.226562 2.21875 -6.53125 C 2.789062 -6.84375 3.429688 -7 4.140625 -7 C 4.859375 -7 5.5 -6.84375 6.0625 -6.53125 C 6.632812 -6.226562 7.082031 -5.804688 7.40625 -5.265625 C 7.738281 -4.722656 7.90625 -4.113281 7.90625 -3.4375 C 7.90625 -2.757812 7.738281 -2.148438 7.40625 -1.609375 C 7.082031 -1.078125 6.632812 -0.65625 6.0625 -0.34375 C 5.5 -0.03125 4.859375 0.125 4.140625 0.125 Z M 4.140625 -1.234375 C 4.546875 -1.234375 4.910156 -1.328125 5.234375 -1.515625 C 5.566406 -1.703125 5.828125 -1.960938 6.015625 -2.296875 C 6.203125 -2.628906 6.296875 -3.007812 6.296875 -3.4375 C 6.296875 -3.863281 6.203125 -4.242188 6.015625 -4.578125 C 5.828125 -4.910156 5.566406 -5.171875 5.234375 -5.359375 C 4.910156 -5.546875 4.546875 -5.640625 4.140625 -5.640625 C 3.734375 -5.640625 3.367188 -5.546875 3.046875 -5.359375 C 2.722656 -5.171875 2.46875 -4.910156 2.28125 -4.578125 C 2.09375 -4.242188 2 -3.863281 2 -3.4375 C 2 -3.007812 2.09375 -2.628906 2.28125 -2.296875 C 2.46875 -1.960938 2.722656 -1.703125 3.046875 -1.515625 C 3.367188 -1.328125 3.734375 -1.234375 4.140625 -1.234375 Z M 4.140625 -1.234375 "/></g></g></g><g fill="#092c4c" fill-opacity="1"><g transform="translate(166.497352, 284.985509)"><g><path d="M 3.796875 -6.875 C 4.398438 -6.875 4.925781 -6.769531 5.375 -6.5625 C 5.820312 -6.363281 6.164062 -6.078125 6.40625 -5.703125 C 6.65625 -5.335938 6.78125 -4.898438 6.78125 -4.390625 C 6.78125 -3.878906 6.65625 -3.4375 6.40625 -3.0625 C 6.164062 -2.6875 5.820312 -2.394531 5.375 -2.1875 C 4.925781 -1.988281 4.398438 -1.890625 3.796875 -1.890625 L 2.40625 -1.890625 L 2.40625 0 L 0.8125 0 L 0.8125 -6.875 Z M 3.703125 -3.1875 C 4.179688 -3.1875 4.546875 -3.289062 4.796875 -3.5 C 5.046875 -3.707031 5.171875 -4.003906 5.171875 -4.390625 C 5.171875 -4.773438 5.046875 -5.066406 4.796875 -5.265625 C 4.546875 -5.472656 4.179688 -5.578125 3.703125 -5.578125 L 2.40625 -5.578125 L 2.40625 -3.1875 Z M 3.703125 -3.1875 "/></g></g></g><g fill="#092c4c" fill-opacity="1"><g transform="translate(181.549994, 284.985509)"><g><path d="M 7.078125 0 L 7.0625 -4.125 L 5.046875 -0.734375 L 4.328125 -0.734375 L 2.3125 -4.046875 L 2.3125 0 L 0.8125 0 L 0.8125 -6.875 L 2.125 -6.875 L 4.703125 -2.609375 L 7.25 -6.875 L 8.546875 -6.875 L 8.5625 0 Z M 7.078125 0 "/></g></g></g><g fill="#092c4c" fill-opacity="1"><g transform="translate(198.792554, 284.985509)"><g><path d="M 6.140625 -1.28125 L 6.140625 0 L 0.8125 0 L 0.8125 -6.875 L 6.015625 -6.875 L 6.015625 -5.609375 L 2.390625 -5.609375 L 2.390625 -4.109375 L 5.59375 -4.109375 L 5.59375 -2.875 L 2.390625 -2.875 L 2.390625 -1.28125 Z M 6.140625 -1.28125 "/></g></g></g><g fill="#092c4c" fill-opacity="1"><g transform="translate(213.246155, 284.985509)"><g><path d="M 7.125 -6.875 L 7.125 0 L 5.8125 0 L 2.390625 -4.171875 L 2.390625 0 L 0.8125 0 L 0.8125 -6.875 L 2.125 -6.875 L 5.546875 -2.703125 L 5.546875 -6.875 Z M 7.125 -6.875 "/></g></g></g><g fill="#092c4c" fill-opacity="1"><g transform="translate(229.045135, 284.985509)"><g><path d="M 2.234375 -5.578125 L 0.046875 -5.578125 L 0.046875 -6.875 L 6.03125 -6.875 L 6.03125 -5.578125 L 3.828125 -5.578125 L 3.828125 0 L 2.234375 0 Z M 2.234375 -5.578125 "/></g></g></g><g fill="#092c4c" fill-opacity="1"><g transform="translate(242.97827, 284.985509)"><g/></g></g><g fill="#092c4c" fill-opacity="1"><g transform="translate(253.621618, 284.985509)"><g><path d="M 6.109375 0.125 L 5.28125 -0.65625 C 4.625 -0.132812 3.859375 0.125 2.984375 0.125 C 2.484375 0.125 2.03125 0.046875 1.625 -0.109375 C 1.226562 -0.273438 0.914062 -0.503906 0.6875 -0.796875 C 0.46875 -1.085938 0.359375 -1.410156 0.359375 -1.765625 C 0.359375 -2.191406 0.476562 -2.566406 0.71875 -2.890625 C 0.957031 -3.210938 1.34375 -3.523438 1.875 -3.828125 C 1.625 -4.078125 1.441406 -4.316406 1.328125 -4.546875 C 1.210938 -4.785156 1.15625 -5.03125 1.15625 -5.28125 C 1.15625 -5.613281 1.242188 -5.90625 1.421875 -6.15625 C 1.597656 -6.414062 1.847656 -6.613281 2.171875 -6.75 C 2.492188 -6.894531 2.867188 -6.96875 3.296875 -6.96875 C 3.898438 -6.96875 4.378906 -6.820312 4.734375 -6.53125 C 5.097656 -6.25 5.28125 -5.867188 5.28125 -5.390625 C 5.28125 -5.035156 5.171875 -4.71875 4.953125 -4.4375 C 4.742188 -4.164062 4.40625 -3.898438 3.9375 -3.640625 L 5.1875 -2.484375 C 5.34375 -2.796875 5.457031 -3.148438 5.53125 -3.546875 L 6.765625 -3.171875 C 6.628906 -2.554688 6.414062 -2.035156 6.125 -1.609375 L 6.9375 -0.859375 Z M 3.296875 -5.921875 C 3.066406 -5.921875 2.882812 -5.863281 2.75 -5.75 C 2.625 -5.632812 2.5625 -5.484375 2.5625 -5.296875 C 2.5625 -5.160156 2.59375 -5.03125 2.65625 -4.90625 C 2.726562 -4.789062 2.875 -4.628906 3.09375 -4.421875 C 3.425781 -4.597656 3.65625 -4.753906 3.78125 -4.890625 C 3.914062 -5.035156 3.984375 -5.191406 3.984375 -5.359375 C 3.984375 -5.523438 3.921875 -5.660156 3.796875 -5.765625 C 3.679688 -5.867188 3.515625 -5.921875 3.296875 -5.921875 Z M 3.09375 -1.078125 C 3.5625 -1.078125 3.988281 -1.210938 4.375 -1.484375 L 2.71875 -3.03125 C 2.40625 -2.851562 2.179688 -2.679688 2.046875 -2.515625 C 1.921875 -2.347656 1.859375 -2.15625 1.859375 -1.9375 C 1.859375 -1.675781 1.96875 -1.46875 2.1875 -1.3125 C 2.414062 -1.15625 2.71875 -1.078125 3.09375 -1.078125 Z M 3.09375 -1.078125 "/></g></g></g><g fill="#092c4c" fill-opacity="1"><g transform="translate(268.634984, 284.985509)"><g/></g></g><g fill="#092c4c" fill-opacity="1"><g transform="translate(279.278332, 284.985509)"><g><path d="M 0.8125 -6.875 L 3.9375 -6.875 C 4.6875 -6.875 5.347656 -6.734375 5.921875 -6.453125 C 6.492188 -6.171875 6.9375 -5.769531 7.25 -5.25 C 7.570312 -4.726562 7.734375 -4.125 7.734375 -3.4375 C 7.734375 -2.75 7.570312 -2.144531 7.25 -1.625 C 6.9375 -1.113281 6.492188 -0.710938 5.921875 -0.421875 C 5.347656 -0.140625 4.6875 0 3.9375 0 L 0.8125 0 Z M 3.859375 -1.3125 C 4.546875 -1.3125 5.09375 -1.5 5.5 -1.875 C 5.914062 -2.257812 6.125 -2.78125 6.125 -3.4375 C 6.125 -4.09375 5.914062 -4.613281 5.5 -5 C 5.09375 -5.382812 4.546875 -5.578125 3.859375 -5.578125 L 2.40625 -5.578125 L 2.40625 -1.3125 Z M 3.859375 -1.3125 "/></g></g></g><g fill="#092c4c" fill-opacity="1"><g transform="translate(295.254077, 284.985509)"><g><path d="M 6.140625 -1.28125 L 6.140625 0 L 0.8125 0 L 0.8125 -6.875 L 6.015625 -6.875 L 6.015625 -5.609375 L 2.390625 -5.609375 L 2.390625 -4.109375 L 5.59375 -4.109375 L 5.59375 -2.875 L 2.390625 -2.875 L 2.390625 -1.28125 Z M 6.140625 -1.28125 "/></g></g></g><g fill="#092c4c" fill-opacity="1"><g transform="translate(309.707689, 284.985509)"><g><path d="M 3.078125 0.125 C 2.535156 0.125 2.007812 0.0507812 1.5 -0.09375 C 0.988281 -0.25 0.582031 -0.441406 0.28125 -0.671875 L 0.8125 -1.875 C 1.113281 -1.65625 1.46875 -1.476562 1.875 -1.34375 C 2.28125 -1.21875 2.6875 -1.15625 3.09375 -1.15625 C 3.539062 -1.15625 3.867188 -1.222656 4.078125 -1.359375 C 4.296875 -1.492188 4.40625 -1.671875 4.40625 -1.890625 C 4.40625 -2.054688 4.34375 -2.191406 4.21875 -2.296875 C 4.09375 -2.410156 3.929688 -2.5 3.734375 -2.5625 C 3.535156 -2.625 3.265625 -2.695312 2.921875 -2.78125 C 2.390625 -2.90625 1.957031 -3.03125 1.625 -3.15625 C 1.289062 -3.28125 1.003906 -3.476562 0.765625 -3.75 C 0.523438 -4.03125 0.40625 -4.398438 0.40625 -4.859375 C 0.40625 -5.253906 0.515625 -5.613281 0.734375 -5.9375 C 0.953125 -6.257812 1.28125 -6.515625 1.71875 -6.703125 C 2.15625 -6.898438 2.6875 -7 3.3125 -7 C 3.75 -7 4.175781 -6.945312 4.59375 -6.84375 C 5.019531 -6.738281 5.390625 -6.585938 5.703125 -6.390625 L 5.203125 -5.171875 C 4.566406 -5.535156 3.929688 -5.71875 3.296875 -5.71875 C 2.859375 -5.71875 2.53125 -5.644531 2.3125 -5.5 C 2.101562 -5.351562 2 -5.164062 2 -4.9375 C 2 -4.695312 2.117188 -4.519531 2.359375 -4.40625 C 2.609375 -4.289062 2.984375 -4.175781 3.484375 -4.0625 C 4.015625 -3.9375 4.445312 -3.8125 4.78125 -3.6875 C 5.113281 -3.570312 5.398438 -3.378906 5.640625 -3.109375 C 5.878906 -2.835938 6 -2.472656 6 -2.015625 C 6 -1.617188 5.890625 -1.257812 5.671875 -0.9375 C 5.453125 -0.613281 5.117188 -0.351562 4.671875 -0.15625 C 4.234375 0.03125 3.703125 0.125 3.078125 0.125 Z M 3.078125 0.125 "/></g></g></g><g fill="#092c4c" fill-opacity="1"><g transform="translate(323.837228, 284.985509)"><g><path d="M 0.8125 -6.875 L 2.40625 -6.875 L 2.40625 0 L 0.8125 0 Z M 0.8125 -6.875 "/></g></g></g><g fill="#092c4c" fill-opacity="1"><g transform="translate(334.922478, 284.985509)"><g><path d="M 5.46875 -3.546875 L 6.921875 -3.546875 L 6.921875 -0.75 C 6.546875 -0.46875 6.113281 -0.25 5.625 -0.09375 C 5.132812 0.0507812 4.640625 0.125 4.140625 0.125 C 3.421875 0.125 2.773438 -0.0234375 2.203125 -0.328125 C 1.640625 -0.640625 1.195312 -1.066406 0.875 -1.609375 C 0.550781 -2.148438 0.390625 -2.757812 0.390625 -3.4375 C 0.390625 -4.125 0.550781 -4.734375 0.875 -5.265625 C 1.195312 -5.804688 1.644531 -6.226562 2.21875 -6.53125 C 2.800781 -6.84375 3.453125 -7 4.171875 -7 C 4.773438 -7 5.320312 -6.894531 5.8125 -6.6875 C 6.300781 -6.488281 6.710938 -6.195312 7.046875 -5.8125 L 6.03125 -4.859375 C 5.53125 -5.378906 4.9375 -5.640625 4.25 -5.640625 C 3.8125 -5.640625 3.421875 -5.546875 3.078125 -5.359375 C 2.734375 -5.179688 2.46875 -4.925781 2.28125 -4.59375 C 2.09375 -4.257812 2 -3.875 2 -3.4375 C 2 -3.007812 2.09375 -2.628906 2.28125 -2.296875 C 2.46875 -1.960938 2.726562 -1.703125 3.0625 -1.515625 C 3.40625 -1.328125 3.789062 -1.234375 4.21875 -1.234375 C 4.675781 -1.234375 5.09375 -1.332031 5.46875 -1.53125 Z M 5.46875 -3.546875 "/></g></g></g><g fill="#092c4c" fill-opacity="1"><g transform="translate(350.358107, 284.985509)"><g><path d="M 7.125 -6.875 L 7.125 0 L 5.8125 0 L 2.390625 -4.171875 L 2.390625 0 L 0.8125 0 L 0.8125 -6.875 L 2.125 -6.875 L 5.546875 -2.703125 L 5.546875 -6.875 Z M 7.125 -6.875 "/></g></g></g><g clip-path="url(#d5e8287b2e)"><path fill="#c7522a" d="M 254.84375 110.523438 C 254.738281 110.136719 254.59375 109.75 254.417969 109.382812 C 254.066406 108.644531 253.582031 107.949219 253.019531 107.386719 C 252.457031 106.816406 251.824219 106.351562 251.164062 105.972656 C 250.503906 105.59375 249.816406 105.3125 249.105469 105.089844 C 248.757812 104.984375 248.398438 104.898438 248.039062 104.820312 C 247.699219 104.761719 247.359375 104.695312 247.027344 104.65625 C 246.6875 104.605469 246.347656 104.578125 246.007812 104.539062 C 245.84375 104.53125 245.667969 104.519531 245.503906 104.511719 C 245.339844 104.5 245.164062 104.492188 245 104.492188 C 244.320312 104.472656 243.648438 104.492188 242.980469 104.539062 C 241.648438 104.625 240.339844 104.839844 239.066406 105.121094 C 236.523438 105.683594 234.113281 106.535156 231.785156 107.433594 C 230.621094 107.878906 229.472656 108.347656 228.328125 108.800781 L 227.472656 109.140625 L 226.601562 109.488281 L 225.726562 109.847656 L 225.289062 110.019531 L 224.863281 110.207031 L 223.132812 110.953125 L 221.425781 111.734375 L 220.996094 111.929688 L 220.578125 112.132812 L 218.890625 112.945312 L 218.054688 113.371094 L 217.21875 113.800781 L 216.804688 114.011719 L 216.394531 114.234375 L 214.746094 115.125 L 213.113281 116.046875 L 212.707031 116.277344 L 212.308594 116.519531 L 211.5 116.996094 L 210.695312 117.46875 L 209.898438 117.964844 L 209.101562 118.457031 L 208.707031 118.699219 L 208.308594 118.953125 L 206.734375 119.960938 L 205.179688 120.996094 C 203.113281 122.390625 201.082031 123.824219 199.082031 125.304688 L 197.605469 126.460938 C 197.113281 126.828125 196.625 127.214844 196.132812 127.59375 L 195.394531 128.164062 L 194.664062 128.746094 C 194.179688 129.132812 193.695312 129.519531 193.207031 129.90625 C 192.683594 130.332031 192.160156 130.761719 191.644531 131.195312 C 191.015625 130.914062 190.382812 130.632812 189.753906 130.351562 C 190.054688 130.054688 190.355469 129.753906 190.644531 129.453125 C 192.421875 127.601562 194.082031 125.605469 195.5 123.40625 C 196.210938 122.3125 196.859375 121.160156 197.433594 119.949219 C 197.996094 118.75 198.480469 117.480469 198.832031 116.171875 C 198.878906 116.007812 198.917969 115.84375 198.957031 115.679688 L 199.074219 115.183594 C 199.152344 114.855469 199.199219 114.515625 199.269531 114.175781 C 199.316406 113.835938 199.363281 113.5 199.402344 113.148438 L 199.453125 112.617188 L 199.480469 112.085938 C 199.519531 110.671875 199.355469 109.265625 199.015625 107.898438 C 198.664062 106.542969 198.140625 105.21875 197.414062 103.988281 C 196.683594 102.757812 195.742188 101.625 194.585938 100.695312 C 194.480469 100.605469 194.375 100.527344 194.265625 100.453125 C 196.570312 97.246094 199.472656 94.523438 202.714844 92.421875 C 206.609375 89.894531 211.015625 88.257812 215.464844 87.703125 L 214.753906 84.0625 C 212.296875 84.703125 209.9375 85.621094 207.734375 86.785156 C 205.53125 87.945312 203.472656 89.339844 201.597656 90.9375 C 199.722656 92.527344 198.042969 94.320312 196.585938 96.257812 C 195.625 97.535156 194.761719 98.882812 194.015625 100.277344 C 192.996094 99.558594 191.839844 99.007812 190.625 98.6875 C 189.1875 98.320312 187.703125 98.203125 186.277344 98.378906 C 184.414062 98.582031 182.617188 99.203125 181.035156 100.160156 C 180.296875 98.804688 179.460938 97.507812 178.527344 96.265625 C 177.070312 94.328125 175.390625 92.546875 173.519531 90.949219 C 171.644531 89.359375 169.585938 87.957031 167.382812 86.792969 C 165.179688 85.632812 162.820312 84.710938 160.363281 84.070312 L 159.652344 87.714844 C 164.109375 88.265625 168.507812 89.902344 172.402344 92.429688 C 175.597656 94.503906 178.460938 97.175781 180.75 100.335938 C 180.003906 100.808594 179.304688 101.363281 178.675781 101.992188 C 177.671875 103 176.828125 104.132812 176.207031 105.371094 C 175.878906 105.980469 175.625 106.621094 175.390625 107.261719 C 175.285156 107.589844 175.179688 107.910156 175.089844 108.238281 C 175.050781 108.402344 175.003906 108.570312 174.964844 108.734375 L 174.859375 109.226562 C 174.820312 109.390625 174.789062 109.554688 174.769531 109.730469 C 174.742188 109.894531 174.710938 110.058594 174.691406 110.234375 L 174.636719 110.738281 C 174.625 110.824219 174.617188 110.902344 174.605469 110.988281 L 174.585938 111.242188 C 174.578125 111.40625 174.566406 111.582031 174.558594 111.746094 L 174.558594 112.25 C 174.558594 112.335938 174.558594 112.414062 174.558594 112.5 L 174.566406 112.753906 L 174.585938 113.257812 C 174.617188 113.585938 174.636719 113.914062 174.691406 114.246094 L 174.761719 114.738281 L 174.859375 115.222656 C 174.878906 115.300781 174.886719 115.386719 174.90625 115.464844 L 174.964844 115.707031 L 175.082031 116.183594 L 175.21875 116.65625 C 175.238281 116.734375 175.265625 116.8125 175.285156 116.890625 L 175.363281 117.121094 L 175.519531 117.585938 L 175.691406 118.042969 L 175.78125 118.265625 L 175.878906 118.488281 L 176.070312 118.933594 L 176.285156 119.367188 L 176.390625 119.582031 L 176.507812 119.796875 L 176.730469 120.210938 L 176.976562 120.617188 L 177.226562 121.023438 L 177.488281 121.421875 L 177.761719 121.808594 L 177.898438 122.003906 L 178.042969 122.1875 C 178.140625 122.3125 178.238281 122.4375 178.335938 122.554688 L 178.636719 122.914062 C 178.839844 123.15625 179.050781 123.378906 179.265625 123.601562 C 178.75 122.46875 178.277344 121.335938 177.925781 120.183594 C 177.742188 119.609375 177.597656 119.03125 177.460938 118.449219 C 177.34375 117.867188 177.226562 117.285156 177.148438 116.703125 L 177.121094 116.492188 L 177.101562 116.277344 L 177.0625 115.84375 L 177.03125 115.40625 L 177.023438 115.195312 C 177.023438 115.125 177.023438 115.046875 177.011719 114.980469 C 176.984375 114.410156 177.011719 113.828125 177.050781 113.265625 L 177.089844 112.851562 L 177.109375 112.636719 C 177.121094 112.570312 177.128906 112.5 177.140625 112.421875 L 177.199219 112.007812 L 177.277344 111.589844 L 177.316406 111.386719 C 177.324219 111.320312 177.34375 111.25 177.363281 111.183594 L 177.460938 110.777344 L 177.578125 110.378906 C 177.617188 110.246094 177.65625 110.109375 177.691406 109.984375 C 178.363281 107.871094 179.539062 105.972656 181.089844 104.566406 C 181.480469 104.230469 181.886719 103.910156 182.324219 103.628906 L 182.488281 103.523438 C 182.546875 103.484375 182.605469 103.453125 182.65625 103.425781 L 182.996094 103.230469 C 183.109375 103.171875 183.226562 103.113281 183.34375 103.058594 C 183.460938 103 183.578125 102.941406 183.695312 102.890625 L 184.054688 102.738281 C 184.167969 102.6875 184.296875 102.648438 184.414062 102.601562 C 184.65625 102.503906 184.90625 102.445312 185.148438 102.371094 C 185.644531 102.242188 186.148438 102.136719 186.664062 102.097656 C 187.675781 101.980469 188.695312 102.089844 189.636719 102.339844 C 190.566406 102.601562 191.433594 103.066406 192.1875 103.6875 C 192.945312 104.316406 193.585938 105.101562 194.113281 105.992188 C 194.625 106.882812 195.015625 107.871094 195.257812 108.898438 C 195.5 109.925781 195.617188 110.980469 195.578125 112.027344 L 195.558594 112.414062 L 195.519531 112.800781 C 195.480469 113.074219 195.441406 113.335938 195.402344 113.605469 C 195.34375 113.875 195.304688 114.136719 195.238281 114.410156 L 195.140625 114.804688 C 195.113281 114.941406 195.082031 115.066406 195.035156 115.203125 C 194.441406 117.324219 193.414062 119.367188 192.140625 121.277344 C 190.867188 123.195312 189.363281 124.996094 187.714844 126.671875 C 187.074219 127.332031 186.402344 127.96875 185.722656 128.601562 C 184.0625 127.84375 182.410156 127.078125 180.769531 126.292969 C 178.566406 125.238281 176.363281 124.171875 174.1875 123.070312 L 172.539062 122.234375 C 171.984375 121.953125 171.429688 121.675781 170.878906 121.402344 L 169.21875 120.570312 L 167.546875 119.757812 C 165.3125 118.671875 163.0625 117.617188 160.789062 116.609375 L 159.933594 116.230469 L 159.082031 115.863281 C 158.507812 115.621094 157.933594 115.367188 157.363281 115.125 L 155.632812 114.417969 C 155.34375 114.304688 155.050781 114.1875 154.757812 114.070312 L 153.886719 113.730469 L 153.011719 113.390625 C 152.71875 113.277344 152.429688 113.167969 152.128906 113.0625 C 151.546875 112.851562 150.953125 112.628906 150.371094 112.414062 L 148.59375 111.792969 L 148.148438 111.640625 L 147.699219 111.492188 L 146.808594 111.203125 C 145.621094 110.804688 144.410156 110.46875 143.207031 110.097656 C 141.992188 109.769531 140.789062 109.421875 139.554688 109.140625 L 138.640625 108.917969 C 138.488281 108.878906 138.339844 108.839844 138.1875 108.8125 L 137.71875 108.714844 L 135.875 108.316406 C 135.242188 108.179688 134.59375 108.066406 133.941406 107.976562 C 133.28125 107.878906 132.621094 107.804688 131.941406 107.765625 C 130.582031 107.675781 129.175781 107.707031 127.710938 107.988281 C 126.980469 108.132812 126.242188 108.355469 125.523438 108.65625 C 124.804688 108.964844 124.097656 109.382812 123.457031 109.894531 C 122.816406 110.410156 122.261719 111.007812 121.785156 111.6875 C 121.320312 112.367188 120.953125 113.101562 120.699219 113.847656 C 120.445312 114.601562 120.28125 115.359375 120.214844 116.105469 C 120.136719 116.851562 120.125 117.585938 120.175781 118.292969 C 120.261719 119.71875 120.535156 121.0625 120.894531 122.363281 C 121.078125 123.011719 121.28125 123.640625 121.496094 124.261719 L 121.824219 125.160156 C 121.933594 125.460938 122.058594 125.753906 122.164062 126.050781 C 124.027344 130.796875 126.476562 135.304688 129.457031 139.449219 C 130.203125 140.484375 130.992188 141.511719 131.855469 142.507812 C 132.71875 143.496094 133.652344 144.464844 134.699219 145.347656 C 135.738281 146.230469 136.882812 147.03125 138.136719 147.691406 C 139.390625 148.351562 140.769531 148.835938 142.136719 149.136719 C 143.515625 149.433594 144.90625 149.5625 146.265625 149.5625 C 147.625 149.5625 148.953125 149.445312 150.253906 149.269531 C 151.554688 149.085938 152.816406 148.84375 154.058594 148.5625 C 154.371094 148.496094 154.683594 148.417969 154.984375 148.351562 L 155.894531 148.128906 L 156.808594 147.90625 L 157.722656 147.664062 C 162.574219 146.375 167.382812 144.757812 171.984375 142.625 C 174.285156 141.558594 176.539062 140.378906 178.722656 139.050781 L 180.34375 138.023438 C 180.867188 137.667969 181.402344 137.316406 181.925781 136.949219 C 182.964844 136.214844 183.984375 135.457031 184.976562 134.664062 C 185.539062 134.21875 186.09375 133.761719 186.636719 133.296875 C 187.226562 133.558594 187.820312 133.820312 188.402344 134.082031 C 186.246094 136.011719 184.167969 138.035156 182.207031 140.175781 C 180.507812 142.035156 178.90625 143.980469 177.429688 146.035156 C 177.070312 146.546875 176.691406 147.0625 176.351562 147.59375 C 176.003906 148.128906 175.65625 148.652344 175.316406 149.191406 C 174.644531 150.269531 174.023438 151.371094 173.429688 152.503906 C 172.265625 154.761719 171.273438 157.117188 170.507812 159.546875 C 169.742188 161.980469 169.179688 164.476562 168.898438 167.027344 C 168.605469 169.574219 168.59375 172.160156 168.898438 174.714844 C 168.933594 175.035156 168.972656 175.355469 169.023438 175.675781 C 169.070312 175.996094 169.121094 176.316406 169.179688 176.625 L 169.539062 178.484375 C 169.683594 179.105469 169.828125 179.714844 169.984375 180.335938 L 170.101562 180.800781 C 170.140625 180.953125 170.1875 181.101562 170.238281 181.253906 L 170.507812 182.164062 C 171.238281 184.585938 172.148438 186.960938 173.226562 189.246094 C 174.324219 191.523438 175.578125 193.722656 176.964844 195.824219 L 177.488281 196.609375 C 177.578125 196.734375 177.664062 196.867188 177.75 196.996094 L 178.023438 197.371094 C 178.390625 197.875 178.75 198.398438 179.128906 198.894531 L 180.285156 200.386719 C 180.382812 200.511719 180.480469 200.628906 180.578125 200.753906 L 180.878906 201.113281 L 181.480469 201.839844 C 183.089844 203.757812 184.789062 205.585938 186.546875 207.359375 L 187.65625 208.523438 L 188.539062 207.136719 C 188.925781 206.527344 189.34375 205.917969 189.78125 205.304688 L 191.101562 203.464844 C 191.984375 202.234375 192.878906 200.984375 193.753906 199.726562 C 195.5 197.199219 197.171875 194.59375 198.65625 191.871094 C 199.402344 190.515625 200.101562 189.121094 200.742188 187.707031 C 201.382812 186.292969 201.96875 184.839844 202.492188 183.367188 C 203.003906 181.894531 203.441406 180.382812 203.800781 178.863281 C 204.160156 177.332031 204.421875 175.78125 204.597656 174.222656 C 204.9375 171.101562 204.871094 167.925781 204.335938 164.828125 C 203.8125 161.726562 202.839844 158.722656 201.480469 155.914062 C 200.800781 154.511719 200.042969 153.15625 199.199219 151.855469 C 198.984375 151.527344 198.761719 151.21875 198.550781 150.898438 C 198.441406 150.742188 198.335938 150.578125 198.21875 150.421875 L 197.539062 149.492188 C 197.421875 149.339844 197.316406 149.183594 197.191406 149.027344 L 196.472656 148.128906 C 195.492188 146.9375 194.472656 145.792969 193.382812 144.707031 L 192.773438 144.097656 L 192.558594 143.902344 L 191.722656 143.121094 C 191.441406 142.859375 191.152344 142.605469 190.867188 142.355469 L 189.996094 141.609375 C 192.003906 143.902344 193.925781 146.257812 195.605469 148.757812 L 196.230469 149.695312 C 196.335938 149.851562 196.433594 150.015625 196.53125 150.171875 L 196.820312 150.65625 L 197.113281 151.128906 C 197.210938 151.292969 197.296875 151.460938 197.394531 151.613281 C 197.578125 151.945312 197.773438 152.261719 197.945312 152.59375 L 198.472656 153.582031 C 198.558594 153.746094 198.644531 153.910156 198.722656 154.085938 L 198.964844 154.589844 L 199.210938 155.09375 L 199.65625 156.117188 L 199.773438 156.371094 L 199.878906 156.632812 C 200.460938 157.996094 200.929688 159.410156 201.324219 160.835938 C 201.722656 162.261719 202.023438 163.703125 202.230469 165.164062 C 202.636719 168.082031 202.617188 171.046875 202.21875 173.960938 C 202.023438 175.421875 201.742188 176.867188 201.375 178.289062 C 201.015625 179.722656 200.570312 181.128906 200.054688 182.523438 C 199.035156 185.304688 197.753906 187.996094 196.296875 190.601562 C 194.839844 193.207031 193.226562 195.734375 191.519531 198.226562 C 190.664062 199.476562 189.800781 200.703125 188.925781 201.953125 C 188.492188 202.585938 188.054688 203.203125 187.625 203.851562 C 187.5 204.046875 187.363281 204.242188 187.238281 204.433594 C 185.945312 203.058594 184.695312 201.644531 183.5 200.191406 L 182.925781 199.484375 L 182.644531 199.136719 C 182.546875 199.019531 182.449219 198.902344 182.363281 198.777344 L 181.277344 197.335938 C 180.578125 196.355469 179.878906 195.378906 179.226562 194.359375 C 177.925781 192.34375 176.75 190.242188 175.730469 188.082031 C 174.730469 185.914062 173.898438 183.675781 173.226562 181.378906 L 172.984375 180.519531 C 172.945312 180.375 172.898438 180.226562 172.867188 180.09375 L 172.769531 179.65625 C 172.632812 179.074219 172.5 178.492188 172.363281 177.914062 L 172.03125 176.148438 C 171.972656 175.859375 171.9375 175.570312 171.898438 175.277344 C 171.847656 174.988281 171.820312 174.695312 171.789062 174.40625 C 171.539062 172.082031 171.566406 169.71875 171.847656 167.382812 C 172.128906 165.050781 172.664062 162.734375 173.390625 160.488281 C 174.128906 158.238281 175.0625 156.042969 176.167969 153.9375 C 176.722656 152.882812 177.316406 151.855469 177.957031 150.847656 C 178.265625 150.34375 178.605469 149.851562 178.9375 149.359375 C 179.257812 148.855469 179.625 148.378906 179.964844 147.894531 C 181.375 145.96875 182.917969 144.117188 184.546875 142.355469 C 186.773438 139.953125 189.167969 137.695312 191.675781 135.542969 C 191.984375 135.679688 192.304688 135.816406 192.617188 135.953125 L 206.191406 141.78125 L 207.890625 142.519531 C 208.472656 142.769531 209.066406 143.003906 209.648438 143.246094 C 210.832031 143.710938 212.035156 144.136719 213.257812 144.515625 C 215.714844 145.269531 218.25 145.839844 220.871094 146.082031 C 223.484375 146.316406 226.171875 146.210938 228.792969 145.636719 C 231.40625 145.066406 233.929688 144.03125 236.183594 142.617188 C 237.308594 141.910156 238.367188 141.113281 239.367188 140.253906 C 239.609375 140.039062 239.863281 139.816406 240.105469 139.601562 L 240.8125 138.925781 C 240.929688 138.808594 241.046875 138.703125 241.164062 138.585938 L 241.503906 138.238281 L 242.171875 137.53125 L 242.816406 136.804688 L 243.136719 136.4375 L 243.445312 136.058594 L 244.058594 135.3125 L 244.640625 134.546875 L 244.929688 134.160156 C 245.027344 134.035156 245.117188 133.898438 245.210938 133.773438 L 245.765625 132.988281 C 245.949219 132.726562 246.125 132.453125 246.300781 132.195312 C 246.476562 131.933594 246.660156 131.671875 246.824219 131.398438 C 248.195312 129.257812 249.417969 127.058594 250.5625 124.851562 C 251.144531 123.746094 251.6875 122.644531 252.242188 121.527344 L 253.066406 119.863281 C 253.347656 119.292969 253.621094 118.699219 253.875 118.089844 C 254.378906 116.871094 254.835938 115.5625 255.027344 114.109375 C 255.078125 113.742188 255.105469 113.371094 255.117188 112.984375 C 255.125 112.609375 255.105469 112.210938 255.058594 111.824219 C 255.027344 111.308594 254.953125 110.921875 254.84375 110.523438 Z M 182.394531 131.332031 C 181.449219 132.066406 180.5 132.773438 179.519531 133.441406 C 179.023438 133.773438 178.539062 134.101562 178.042969 134.429688 L 176.539062 135.371094 C 174.5 136.589844 172.382812 137.695312 170.21875 138.683594 C 165.867188 140.660156 161.292969 142.199219 156.625 143.410156 L 155.75 143.644531 L 154.867188 143.855469 L 153.984375 144.070312 C 153.691406 144.136719 153.398438 144.203125 153.109375 144.273438 C 151.945312 144.535156 150.789062 144.757812 149.652344 144.910156 C 147.371094 145.230469 145.128906 145.28125 143.070312 144.824219 L 142.875 144.785156 C 142.808594 144.777344 142.75 144.757812 142.679688 144.738281 L 142.300781 144.628906 C 142.050781 144.574219 141.808594 144.476562 141.5625 144.386719 C 141.3125 144.3125 141.089844 144.195312 140.847656 144.109375 C 140.730469 144.058594 140.613281 144 140.496094 143.941406 C 140.378906 143.886719 140.261719 143.828125 140.148438 143.769531 C 139.222656 143.285156 138.339844 142.664062 137.496094 141.957031 C 136.660156 141.25 135.875 140.445312 135.117188 139.585938 C 134.359375 138.722656 133.652344 137.800781 132.960938 136.84375 C 130.195312 132.996094 127.894531 128.8125 126.15625 124.40625 C 126.046875 124.125 125.941406 123.855469 125.835938 123.574219 L 125.523438 122.738281 C 125.332031 122.207031 125.15625 121.664062 125 121.132812 C 124.699219 120.054688 124.484375 118.980469 124.417969 117.953125 C 124.347656 116.929688 124.4375 115.949219 124.707031 115.125 C 124.84375 114.710938 125.039062 114.339844 125.261719 114.003906 C 125.496094 113.664062 125.777344 113.363281 126.097656 113.101562 C 126.417969 112.839844 126.785156 112.628906 127.195312 112.441406 C 127.601562 112.269531 128.050781 112.125 128.535156 112.027344 C 129.011719 111.929688 129.523438 111.871094 130.050781 111.84375 C 130.574219 111.8125 131.117188 111.824219 131.660156 111.863281 C 132.214844 111.890625 132.769531 111.957031 133.332031 112.035156 C 133.894531 112.113281 134.457031 112.210938 135.039062 112.335938 L 136.808594 112.714844 L 137.242188 112.8125 C 137.390625 112.839844 137.535156 112.878906 137.679688 112.917969 L 138.554688 113.128906 C 139.730469 113.402344 140.894531 113.730469 142.058594 114.03125 C 143.214844 114.371094 144.378906 114.699219 145.527344 115.078125 L 146.390625 115.347656 L 146.816406 115.484375 L 147.246094 115.628906 L 148.964844 116.222656 C 149.535156 116.425781 150.097656 116.636719 150.671875 116.839844 C 150.953125 116.945312 151.246094 117.042969 151.527344 117.152344 L 153.214844 117.808594 C 153.496094 117.914062 153.777344 118.023438 154.058594 118.136719 L 155.75 118.816406 C 156.3125 119.050781 156.867188 119.292969 157.429688 119.523438 L 158.273438 119.882812 L 159.109375 120.25 C 161.34375 121.21875 163.554688 122.246094 165.761719 123.300781 L 167.410156 124.097656 L 169.0625 124.910156 C 169.613281 125.179688 170.160156 125.453125 170.703125 125.734375 L 172.351562 126.554688 C 174.566406 127.679688 176.808594 128.746094 179.050781 129.800781 C 180.160156 130.324219 181.277344 130.835938 182.394531 131.339844 C 182.410156 131.320312 182.402344 131.320312 182.394531 131.332031 Z M 251.484375 113.519531 C 251.347656 114.496094 251.007812 115.542969 250.5625 116.589844 C 250.339844 117.113281 250.097656 117.636719 249.835938 118.167969 L 249.019531 119.804688 C 248.464844 120.898438 247.921875 121.984375 247.359375 123.058594 C 246.230469 125.210938 245.058594 127.3125 243.765625 129.308594 C 243.609375 129.558594 243.4375 129.800781 243.269531 130.054688 C 243.105469 130.296875 242.941406 130.546875 242.777344 130.789062 L 242.261719 131.503906 C 242.171875 131.621094 242.085938 131.746094 242 131.863281 L 241.726562 132.210938 L 241.191406 132.910156 L 240.628906 133.589844 L 240.347656 133.925781 L 240.058594 134.257812 L 239.472656 134.914062 L 238.871094 135.546875 L 238.570312 135.855469 C 238.472656 135.960938 238.359375 136.058594 238.261719 136.15625 L 237.628906 136.753906 C 237.414062 136.949219 237.203125 137.132812 236.980469 137.328125 C 236.105469 138.074219 235.191406 138.75 234.230469 139.351562 C 232.308594 140.554688 230.210938 141.40625 228.007812 141.878906 C 225.804688 142.355469 223.511719 142.441406 221.230469 142.230469 C 218.9375 142.015625 216.648438 141.492188 214.394531 140.796875 C 213.269531 140.445312 212.152344 140.050781 211.046875 139.605469 C 210.492188 139.378906 209.9375 139.15625 209.394531 138.914062 L 208.558594 138.546875 L 207.714844 138.179688 L 194.984375 132.660156 C 195.074219 132.582031 195.171875 132.511719 195.257812 132.4375 C 202.871094 126.332031 210.957031 120.832031 219.617188 116.445312 L 220.425781 116.027344 L 221.238281 115.628906 L 222.054688 115.234375 L 222.464844 115.039062 L 222.882812 114.855469 L 224.53125 114.097656 L 226.203125 113.382812 L 226.617188 113.207031 L 227.035156 113.042969 L 227.882812 112.703125 L 228.726562 112.367188 L 229.589844 112.027344 C 230.746094 111.570312 231.882812 111.117188 233.019531 110.691406 C 235.28125 109.828125 237.542969 109.054688 239.8125 108.558594 C 242.078125 108.066406 244.359375 107.863281 246.53125 108.171875 C 246.804688 108.199219 247.078125 108.257812 247.339844 108.308594 C 247.582031 108.355469 247.824219 108.414062 248.058594 108.492188 C 248.523438 108.636719 248.980469 108.828125 249.386719 109.0625 C 249.796875 109.296875 250.15625 109.574219 250.457031 109.886719 C 250.535156 109.964844 250.601562 110.039062 250.667969 110.117188 L 250.765625 110.246094 C 250.796875 110.28125 250.835938 110.320312 250.855469 110.371094 C 250.910156 110.457031 250.96875 110.535156 251.019531 110.632812 L 251.097656 110.765625 L 251.164062 110.902344 C 251.25 111.085938 251.328125 111.28125 251.378906 111.484375 C 251.4375 111.6875 251.476562 111.902344 251.503906 112.113281 C 251.523438 112.335938 251.535156 112.558594 251.535156 112.792969 C 251.535156 113.035156 251.515625 113.265625 251.484375 113.519531 Z M 251.484375 113.519531 " fill-opacity="1" fill-rule="nonzero"/></g></svg>