<svg xmlns="http://www.w3.org/2000/svg" xmlns:xlink="http://www.w3.org/1999/xlink" width="500" zoomAndPan="magnify" viewBox="0 0 375 374.999991" height="500" preserveAspectRatio="xMidYMid meet" version="1.0"><defs><clipPath id="590233c850"><path d="M 88.964844 96.394531 L 286.214844 96.394531 L 286.214844 278.644531 L 88.964844 278.644531 Z M 88.964844 96.394531 " clip-rule="nonzero"/></clipPath></defs><g clip-path="url(#590233c850)"><path fill="#c7522a" d="M 285.800781 135.171875 C 285.648438 134.605469 285.433594 134.039062 285.179688 133.5 C 284.667969 132.421875 283.957031 131.402344 283.136719 130.578125 C 282.3125 129.742188 281.390625 129.0625 280.425781 128.507812 C 279.460938 127.957031 278.453125 127.546875 277.417969 127.21875 C 276.90625 127.0625 276.382812 126.9375 275.859375 126.824219 C 275.363281 126.738281 274.863281 126.636719 274.382812 126.582031 C 273.886719 126.511719 273.390625 126.46875 272.894531 126.410156 C 272.652344 126.398438 272.394531 126.382812 272.15625 126.367188 C 271.914062 126.355469 271.660156 126.339844 271.417969 126.339844 C 270.425781 126.3125 269.445312 126.339844 268.464844 126.410156 C 266.523438 126.539062 264.609375 126.851562 262.75 127.261719 C 259.03125 128.085938 255.515625 129.332031 252.109375 130.652344 C 250.40625 131.300781 248.734375 131.984375 247.058594 132.648438 L 245.8125 133.144531 L 244.535156 133.65625 L 243.257812 134.179688 L 242.617188 134.4375 L 241.996094 134.703125 L 239.46875 135.796875 L 236.972656 136.945312 L 236.347656 137.226562 L 235.738281 137.527344 L 234.503906 138.121094 L 233.269531 138.71875 L 232.050781 139.339844 L 230.828125 139.964844 L 230.21875 140.277344 L 229.625 140.601562 L 227.210938 141.90625 L 224.828125 143.253906 L 224.234375 143.59375 L 223.652344 143.949219 L 222.472656 144.644531 L 221.296875 145.335938 L 220.132812 146.058594 L 218.96875 146.785156 L 218.386719 147.136719 L 217.804688 147.507812 L 215.507812 148.980469 L 213.238281 150.496094 C 210.214844 152.539062 207.25 154.636719 204.328125 156.804688 L 202.171875 158.492188 C 201.449219 159.03125 200.738281 159.597656 200.015625 160.152344 L 198.9375 160.988281 L 197.875 161.839844 C 197.164062 162.40625 196.457031 162.972656 195.746094 163.539062 C 194.980469 164.164062 194.214844 164.789062 193.460938 165.425781 C 192.539062 165.015625 191.617188 164.605469 190.695312 164.191406 C 191.136719 163.753906 191.574219 163.3125 192 162.875 C 194.597656 160.167969 197.023438 157.246094 199.09375 154.027344 C 200.128906 152.425781 201.082031 150.738281 201.917969 148.964844 C 202.742188 147.207031 203.449219 145.351562 203.960938 143.4375 C 204.03125 143.195312 204.089844 142.957031 204.144531 142.714844 L 204.316406 141.992188 C 204.429688 141.511719 204.5 141.011719 204.597656 140.515625 C 204.667969 140.019531 204.742188 139.523438 204.796875 139.015625 L 204.867188 138.234375 L 204.910156 137.457031 C 204.96875 135.386719 204.726562 133.328125 204.230469 131.332031 C 203.71875 129.347656 202.953125 127.402344 201.890625 125.601562 C 200.824219 123.804688 199.449219 122.144531 197.761719 120.785156 C 197.605469 120.65625 197.449219 120.542969 197.292969 120.429688 C 200.65625 115.738281 204.898438 111.753906 209.636719 108.675781 C 215.324219 104.976562 221.765625 102.582031 228.261719 101.773438 L 227.226562 96.441406 C 223.636719 97.378906 220.191406 98.722656 216.96875 100.425781 C 213.75 102.125 210.742188 104.167969 208.003906 106.507812 C 205.265625 108.832031 202.8125 111.457031 200.683594 114.289062 C 199.277344 116.160156 198.015625 118.132812 196.925781 120.171875 C 195.433594 119.125 193.746094 118.316406 191.972656 117.847656 C 189.875 117.308594 187.703125 117.140625 185.617188 117.394531 C 182.894531 117.691406 180.269531 118.601562 177.957031 120.003906 C 176.878906 118.019531 175.65625 116.121094 174.296875 114.304688 C 172.167969 111.46875 169.714844 108.859375 166.976562 106.523438 C 164.238281 104.195312 161.230469 102.140625 158.011719 100.441406 C 154.789062 98.738281 151.34375 97.390625 147.753906 96.457031 L 146.71875 101.785156 C 153.230469 102.59375 159.65625 104.992188 165.34375 108.691406 C 170.011719 111.722656 174.195312 115.636719 177.546875 120.257812 C 176.453125 120.953125 175.429688 121.761719 174.507812 122.683594 C 173.046875 124.15625 171.8125 125.816406 170.90625 127.628906 C 170.421875 128.523438 170.054688 129.460938 169.714844 130.394531 C 169.558594 130.878906 169.402344 131.34375 169.273438 131.828125 C 169.21875 132.066406 169.148438 132.308594 169.089844 132.550781 L 168.933594 133.273438 C 168.878906 133.515625 168.835938 133.753906 168.804688 134.011719 C 168.761719 134.25 168.722656 134.492188 168.691406 134.746094 L 168.609375 135.484375 C 168.59375 135.613281 168.578125 135.726562 168.566406 135.851562 L 168.535156 136.222656 C 168.523438 136.460938 168.507812 136.71875 168.492188 136.960938 L 168.492188 137.695312 C 168.492188 137.824219 168.492188 137.9375 168.492188 138.066406 L 168.507812 138.433594 L 168.535156 139.171875 C 168.578125 139.652344 168.609375 140.132812 168.691406 140.617188 L 168.792969 141.339844 L 168.933594 142.046875 C 168.960938 142.160156 168.976562 142.289062 169.003906 142.402344 L 169.089844 142.757812 L 169.261719 143.453125 L 169.457031 144.148438 C 169.488281 144.261719 169.53125 144.375 169.558594 144.488281 L 169.898438 145.507812 L 170.152344 146.175781 L 170.28125 146.5 L 170.421875 146.824219 L 170.707031 147.476562 L 171.019531 148.117188 L 171.175781 148.429688 L 171.34375 148.738281 L 171.671875 149.347656 L 172.027344 149.945312 L 172.394531 150.539062 L 172.777344 151.121094 L 173.175781 151.6875 L 173.375 151.972656 L 173.585938 152.242188 C 173.730469 152.425781 173.871094 152.609375 174.011719 152.78125 L 174.453125 153.304688 C 174.75 153.660156 175.0625 153.984375 175.375 154.3125 C 174.621094 152.652344 173.925781 150.992188 173.417969 149.308594 C 173.148438 148.46875 172.933594 147.621094 172.734375 146.769531 C 172.566406 145.917969 172.394531 145.066406 172.28125 144.21875 L 172.238281 143.90625 L 172.210938 143.59375 L 172.152344 142.957031 L 172.113281 142.316406 L 172.097656 142.007812 C 172.097656 141.90625 172.097656 141.792969 172.082031 141.695312 C 172.039062 140.859375 172.082031 140.007812 172.140625 139.183594 L 172.195312 138.574219 L 172.226562 138.261719 C 172.238281 138.164062 172.253906 138.066406 172.269531 137.953125 L 172.351562 137.339844 L 172.464844 136.730469 L 172.523438 136.433594 C 172.539062 136.335938 172.566406 136.234375 172.59375 136.136719 L 172.734375 135.542969 L 172.90625 134.960938 C 172.960938 134.761719 173.019531 134.5625 173.078125 134.378906 C 174.054688 131.289062 175.773438 128.507812 178.042969 126.453125 C 178.609375 125.957031 179.203125 125.488281 179.84375 125.078125 L 180.085938 124.921875 C 180.167969 124.867188 180.253906 124.824219 180.324219 124.78125 L 180.820312 124.496094 C 180.992188 124.414062 181.164062 124.328125 181.332031 124.242188 C 181.503906 124.15625 181.671875 124.074219 181.84375 124 L 182.367188 123.773438 C 182.539062 123.703125 182.722656 123.648438 182.894531 123.578125 C 183.246094 123.433594 183.617188 123.347656 183.972656 123.234375 C 184.695312 123.050781 185.433594 122.894531 186.183594 122.839844 C 187.660156 122.667969 189.148438 122.824219 190.527344 123.195312 C 191.886719 123.578125 193.148438 124.257812 194.257812 125.164062 C 195.363281 126.085938 196.300781 127.234375 197.066406 128.539062 C 197.816406 129.84375 198.386719 131.289062 198.738281 132.792969 C 199.09375 134.292969 199.265625 135.839844 199.207031 137.371094 L 199.179688 137.9375 L 199.121094 138.503906 C 199.066406 138.902344 199.007812 139.285156 198.953125 139.679688 C 198.867188 140.078125 198.8125 140.460938 198.710938 140.859375 L 198.570312 141.4375 C 198.527344 141.636719 198.484375 141.820312 198.414062 142.019531 C 197.546875 145.125 196.042969 148.117188 194.1875 150.910156 C 192.328125 153.714844 190.128906 156.351562 187.71875 158.804688 C 186.78125 159.769531 185.800781 160.703125 184.808594 161.625 C 182.382812 160.519531 179.972656 159.402344 177.574219 158.253906 C 174.351562 156.707031 171.132812 155.148438 167.953125 153.53125 L 165.542969 152.3125 C 164.734375 151.902344 163.925781 151.488281 163.117188 151.09375 L 160.691406 149.875 L 158.25 148.683594 C 154.988281 147.09375 151.695312 145.550781 148.378906 144.074219 L 147.128906 143.523438 L 145.878906 142.984375 C 145.042969 142.628906 144.207031 142.261719 143.371094 141.90625 L 140.84375 140.871094 C 140.417969 140.703125 139.992188 140.53125 139.566406 140.363281 L 138.289062 139.867188 L 137.015625 139.367188 C 136.589844 139.199219 136.164062 139.042969 135.722656 138.886719 C 134.871094 138.574219 134.007812 138.25 133.15625 137.9375 L 130.558594 137.03125 L 129.90625 136.804688 L 129.253906 136.589844 L 127.949219 136.164062 C 126.21875 135.582031 124.445312 135.085938 122.6875 134.550781 C 120.914062 134.066406 119.152344 133.554688 117.351562 133.144531 L 116.019531 132.820312 C 115.789062 132.761719 115.578125 132.707031 115.351562 132.664062 L 114.671875 132.523438 L 111.976562 131.941406 C 111.050781 131.742188 110.101562 131.570312 109.152344 131.445312 C 108.1875 131.300781 107.222656 131.1875 106.230469 131.132812 C 104.242188 131.003906 102.1875 131.046875 100.042969 131.457031 C 98.980469 131.671875 97.902344 131.996094 96.851562 132.4375 C 95.800781 132.890625 94.765625 133.5 93.832031 134.25 C 92.894531 135.003906 92.085938 135.882812 91.390625 136.875 C 90.710938 137.867188 90.171875 138.945312 89.800781 140.035156 C 89.433594 141.140625 89.191406 142.246094 89.09375 143.339844 C 88.976562 144.429688 88.964844 145.507812 89.035156 146.542969 C 89.164062 148.625 89.558594 150.597656 90.085938 152.496094 C 90.355469 153.445312 90.652344 154.367188 90.964844 155.273438 L 91.445312 156.59375 C 91.601562 157.035156 91.789062 157.457031 91.945312 157.898438 C 94.667969 164.84375 98.242188 171.4375 102.597656 177.503906 C 103.691406 179.019531 104.839844 180.523438 106.101562 181.984375 C 107.363281 183.429688 108.726562 184.847656 110.257812 186.136719 C 111.777344 187.429688 113.449219 188.605469 115.28125 189.570312 C 117.109375 190.53125 119.125 191.242188 121.125 191.679688 C 123.140625 192.121094 125.167969 192.304688 127.15625 192.304688 C 129.140625 192.304688 131.085938 192.136719 132.984375 191.878906 C 134.886719 191.609375 136.730469 191.253906 138.546875 190.84375 C 139 190.746094 139.453125 190.632812 139.894531 190.53125 L 141.226562 190.207031 L 142.5625 189.878906 L 143.894531 189.527344 C 150.988281 187.640625 158.011719 185.273438 164.734375 182.15625 C 168.097656 180.59375 171.386719 178.867188 174.582031 176.921875 L 176.949219 175.421875 C 177.714844 174.894531 178.496094 174.386719 179.261719 173.847656 C 180.78125 172.769531 182.269531 171.664062 183.714844 170.5 C 184.539062 169.847656 185.347656 169.183594 186.140625 168.503906 C 187.007812 168.886719 187.871094 169.269531 188.722656 169.652344 C 185.574219 172.472656 182.539062 175.433594 179.671875 178.566406 C 177.191406 181.289062 174.851562 184.140625 172.691406 187.144531 C 172.167969 187.894531 171.613281 188.648438 171.117188 189.425781 C 170.609375 190.207031 170.097656 190.972656 169.601562 191.765625 C 168.621094 193.339844 167.714844 194.957031 166.847656 196.613281 C 165.144531 199.917969 163.699219 203.363281 162.578125 206.921875 C 161.457031 210.480469 160.632812 214.136719 160.222656 217.867188 C 159.796875 221.59375 159.785156 225.378906 160.222656 229.121094 C 160.28125 229.589844 160.335938 230.058594 160.40625 230.523438 C 160.480469 230.992188 160.550781 231.460938 160.632812 231.914062 L 161.160156 234.636719 C 161.371094 235.542969 161.585938 236.4375 161.8125 237.34375 L 161.984375 238.023438 C 162.039062 238.25 162.109375 238.464844 162.179688 238.691406 L 162.578125 240.023438 C 163.640625 243.566406 164.976562 247.042969 166.550781 250.386719 C 168.152344 253.71875 169.984375 256.9375 172.011719 260.011719 L 172.777344 261.160156 C 172.90625 261.34375 173.035156 261.542969 173.160156 261.726562 L 173.558594 262.28125 C 174.097656 263.019531 174.621094 263.785156 175.175781 264.507812 L 176.863281 266.691406 C 177.007812 266.875 177.148438 267.042969 177.289062 267.230469 L 177.730469 267.753906 L 178.609375 268.816406 C 180.964844 271.625 183.445312 274.304688 186.015625 276.898438 L 187.632812 278.597656 L 188.921875 276.570312 C 189.488281 275.679688 190.101562 274.785156 190.738281 273.890625 L 192.667969 271.199219 C 193.957031 269.398438 195.265625 267.570312 196.539062 265.726562 C 199.09375 262.027344 201.535156 258.210938 203.707031 254.230469 C 204.796875 252.242188 205.820312 250.203125 206.753906 248.132812 C 207.691406 246.0625 208.542969 243.9375 209.308594 241.78125 C 210.0625 239.625 210.699219 237.414062 211.222656 235.191406 C 211.75 232.949219 212.132812 230.679688 212.386719 228.398438 C 212.882812 223.832031 212.785156 219.183594 212.003906 214.648438 C 211.238281 210.109375 209.820312 205.714844 207.832031 201.605469 C 206.839844 199.550781 205.734375 197.566406 204.5 195.664062 C 204.1875 195.183594 203.859375 194.730469 203.550781 194.261719 C 203.394531 194.035156 203.238281 193.792969 203.066406 193.566406 L 202.074219 192.207031 C 201.902344 191.980469 201.746094 191.753906 201.5625 191.523438 L 200.511719 190.207031 C 199.082031 188.464844 197.589844 186.789062 196 185.203125 L 195.40625 184.605469 L 195.109375 184.308594 L 194.796875 184.027344 L 193.574219 182.878906 C 193.164062 182.496094 192.738281 182.125 192.328125 181.757812 L 191.050781 180.664062 C 193.988281 184.027344 196.796875 187.46875 199.25 191.128906 L 200.160156 192.503906 C 200.316406 192.730469 200.457031 192.972656 200.597656 193.199219 L 201.023438 193.90625 L 201.449219 194.601562 C 201.589844 194.84375 201.71875 195.082031 201.859375 195.308594 C 202.128906 195.792969 202.414062 196.261719 202.667969 196.742188 L 203.4375 198.1875 C 203.5625 198.429688 203.691406 198.671875 203.804688 198.925781 L 204.160156 199.664062 L 204.515625 200.398438 L 204.839844 201.152344 L 205.167969 201.902344 L 205.335938 202.269531 L 205.492188 202.652344 C 206.34375 204.652344 207.023438 206.722656 207.605469 208.804688 C 208.1875 210.890625 208.628906 213.003906 208.925781 215.144531 C 209.523438 219.410156 209.492188 223.75 208.910156 228.015625 C 208.628906 230.15625 208.214844 232.269531 207.675781 234.351562 C 207.152344 236.453125 206.5 238.507812 205.75 240.546875 C 204.257812 244.617188 202.386719 248.558594 200.257812 252.371094 C 198.128906 256.183594 195.773438 259.886719 193.277344 263.527344 C 192.03125 265.359375 190.765625 267.15625 189.492188 268.988281 C 188.851562 269.910156 188.214844 270.816406 187.589844 271.765625 C 187.40625 272.050781 187.207031 272.332031 187.023438 272.617188 C 185.136719 270.601562 183.304688 268.53125 181.558594 266.40625 L 180.722656 265.371094 L 180.3125 264.859375 C 180.167969 264.691406 180.027344 264.519531 179.898438 264.335938 L 178.3125 262.222656 C 177.289062 260.792969 176.269531 259.359375 175.316406 257.871094 C 173.417969 254.921875 171.699219 251.847656 170.210938 248.6875 C 168.75 245.511719 167.53125 242.234375 166.550781 238.875 L 166.195312 237.613281 C 166.140625 237.402344 166.066406 237.1875 166.027344 236.988281 L 165.882812 236.351562 C 165.683594 235.5 165.488281 234.652344 165.289062 233.800781 L 164.804688 231.21875 C 164.71875 230.792969 164.664062 230.371094 164.605469 229.945312 C 164.535156 229.519531 164.492188 229.09375 164.449219 228.667969 C 164.082031 225.265625 164.125 221.804688 164.535156 218.390625 C 164.949219 214.972656 165.726562 211.585938 166.792969 208.296875 C 167.871094 205.007812 169.230469 201.789062 170.847656 198.710938 C 171.65625 197.167969 172.523438 195.664062 173.460938 194.191406 C 173.914062 193.453125 174.410156 192.730469 174.890625 192.007812 C 175.359375 191.269531 175.898438 190.574219 176.394531 189.867188 C 178.453125 187.046875 180.707031 184.335938 183.09375 181.757812 C 186.339844 178.242188 189.84375 174.9375 193.503906 171.792969 C 193.960938 171.988281 194.425781 172.1875 194.882812 172.386719 L 214.714844 180.921875 L 217.195312 182 C 218.046875 182.367188 218.914062 182.707031 219.765625 183.0625 C 221.496094 183.742188 223.253906 184.367188 225.042969 184.917969 C 228.632812 186.023438 232.332031 186.859375 236.164062 187.214844 C 239.980469 187.554688 243.910156 187.398438 247.742188 186.5625 C 251.554688 185.726562 255.246094 184.210938 258.535156 182.140625 C 260.183594 181.105469 261.726562 179.941406 263.1875 178.679688 C 263.542969 178.367188 263.914062 178.042969 264.269531 177.730469 L 265.304688 176.738281 C 265.472656 176.570312 265.644531 176.414062 265.8125 176.242188 L 266.308594 175.730469 L 267.289062 174.699219 L 268.226562 173.632812 L 268.695312 173.09375 L 269.148438 172.542969 L 270.042969 171.449219 L 270.894531 170.332031 L 271.316406 169.765625 C 271.460938 169.578125 271.589844 169.382812 271.730469 169.195312 L 272.539062 168.046875 C 272.808594 167.664062 273.0625 167.269531 273.320312 166.886719 C 273.574219 166.503906 273.84375 166.121094 274.085938 165.722656 C 276.085938 162.589844 277.871094 159.371094 279.546875 156.140625 C 280.398438 154.523438 281.191406 152.90625 282 151.277344 L 283.207031 148.839844 C 283.617188 148.003906 284.015625 147.136719 284.382812 146.246094 C 285.121094 144.457031 285.789062 142.542969 286.074219 140.417969 C 286.144531 139.878906 286.1875 139.339844 286.199219 138.773438 C 286.214844 138.21875 286.1875 137.640625 286.113281 137.074219 C 286.070312 136.320312 285.957031 135.753906 285.800781 135.171875 Z M 179.941406 165.625 C 178.566406 166.703125 177.175781 167.738281 175.742188 168.714844 C 175.019531 169.195312 174.308594 169.679688 173.585938 170.160156 L 171.386719 171.535156 C 168.410156 173.324219 165.316406 174.9375 162.152344 176.382812 C 155.796875 179.277344 149.113281 181.53125 142.292969 183.304688 L 141.015625 183.644531 L 139.722656 183.953125 L 138.433594 184.265625 C 138.007812 184.367188 137.582031 184.464844 137.15625 184.566406 C 135.453125 184.945312 133.765625 185.273438 132.105469 185.5 C 128.773438 185.96875 125.496094 186.039062 122.488281 185.371094 L 122.203125 185.316406 C 122.105469 185.300781 122.019531 185.273438 121.917969 185.246094 L 121.367188 185.089844 C 120.996094 185.003906 120.644531 184.863281 120.289062 184.734375 C 119.917969 184.621094 119.59375 184.449219 119.238281 184.324219 C 119.066406 184.253906 118.898438 184.167969 118.726562 184.082031 C 118.558594 183.996094 118.386719 183.914062 118.21875 183.828125 C 116.867188 183.117188 115.578125 182.210938 114.34375 181.175781 C 113.125 180.140625 111.976562 178.964844 110.867188 177.703125 C 109.761719 176.441406 108.726562 175.09375 107.71875 173.691406 C 103.675781 168.0625 100.3125 161.9375 97.773438 155.488281 C 97.617188 155.078125 97.460938 154.679688 97.304688 154.269531 L 96.851562 153.050781 C 96.566406 152.269531 96.3125 151.476562 96.085938 150.695312 C 95.644531 149.121094 95.332031 147.550781 95.234375 146.046875 C 95.136719 144.542969 95.261719 143.113281 95.660156 141.90625 C 95.859375 141.296875 96.140625 140.757812 96.46875 140.261719 C 96.808594 139.765625 97.21875 139.328125 97.6875 138.945312 C 98.15625 138.5625 98.695312 138.25 99.292969 137.980469 C 99.886719 137.722656 100.539062 137.511719 101.25 137.371094 C 101.945312 137.226562 102.695312 137.144531 103.460938 137.101562 C 104.230469 137.058594 105.023438 137.074219 105.816406 137.128906 C 106.625 137.171875 107.433594 137.269531 108.257812 137.382812 C 109.082031 137.496094 109.902344 137.640625 110.753906 137.824219 L 113.335938 138.375 L 113.976562 138.519531 C 114.1875 138.5625 114.402344 138.617188 114.613281 138.675781 L 115.890625 138.984375 C 117.605469 139.382812 119.308594 139.867188 121.011719 140.304688 C 122.699219 140.800781 124.402344 141.28125 126.074219 141.835938 L 127.339844 142.234375 L 127.964844 142.429688 L 128.585938 142.644531 L 131.097656 143.507812 C 131.933594 143.804688 132.757812 144.117188 133.59375 144.414062 C 134.007812 144.570312 134.433594 144.714844 134.84375 144.871094 L 137.3125 145.832031 C 137.722656 145.988281 138.132812 146.144531 138.546875 146.316406 L 141.015625 147.308594 C 141.835938 147.648438 142.644531 148.003906 143.46875 148.34375 L 144.703125 148.867188 L 145.921875 149.40625 C 149.1875 150.824219 152.421875 152.328125 155.640625 153.871094 L 158.050781 155.035156 L 160.464844 156.226562 C 161.273438 156.621094 162.066406 157.019531 162.863281 157.429688 L 165.273438 158.636719 C 168.507812 160.28125 171.785156 161.839844 175.0625 163.382812 C 176.679688 164.148438 178.3125 164.902344 179.941406 165.636719 C 179.972656 165.609375 179.957031 165.609375 179.941406 165.625 Z M 280.894531 139.554688 C 280.695312 140.984375 280.199219 142.515625 279.546875 144.046875 C 279.21875 144.8125 278.867188 145.578125 278.480469 146.359375 L 277.289062 148.753906 C 276.480469 150.355469 275.6875 151.945312 274.863281 153.515625 C 273.21875 156.664062 271.503906 159.742188 269.617188 162.660156 C 269.390625 163.03125 269.132812 163.382812 268.890625 163.753906 C 268.652344 164.109375 268.410156 164.476562 268.167969 164.832031 L 267.417969 165.878906 C 267.289062 166.050781 267.160156 166.234375 267.035156 166.402344 L 266.636719 166.914062 L 265.855469 167.933594 L 265.035156 168.925781 L 264.621094 169.421875 L 264.195312 169.90625 L 263.34375 170.871094 L 262.464844 171.792969 L 262.027344 172.246094 C 261.882812 172.402344 261.714844 172.542969 261.570312 172.683594 L 260.648438 173.5625 C 260.335938 173.847656 260.027344 174.117188 259.699219 174.398438 C 258.421875 175.492188 257.089844 176.484375 255.683594 177.363281 C 252.875 179.121094 249.8125 180.367188 246.589844 181.0625 C 243.371094 181.757812 240.023438 181.886719 236.6875 181.574219 C 233.339844 181.261719 229.992188 180.496094 226.703125 179.476562 C 225.054688 178.964844 223.425781 178.382812 221.808594 177.730469 C 221 177.40625 220.191406 177.078125 219.394531 176.726562 L 218.175781 176.1875 L 216.941406 175.648438 L 198.34375 167.566406 C 198.46875 167.453125 198.613281 167.355469 198.738281 167.242188 C 209.863281 158.308594 221.679688 150.257812 234.332031 143.835938 L 235.511719 143.226562 L 237.894531 142.0625 L 238.492188 141.777344 L 239.101562 141.511719 L 241.511719 140.402344 L 243.953125 139.355469 L 244.5625 139.101562 L 245.171875 138.859375 L 247.640625 137.867188 L 248.902344 137.371094 C 250.589844 136.703125 252.25 136.039062 253.910156 135.414062 C 257.214844 134.152344 260.523438 133.019531 263.84375 132.292969 C 267.148438 131.570312 270.480469 131.273438 273.660156 131.726562 C 274.054688 131.769531 274.453125 131.855469 274.835938 131.925781 C 275.191406 131.996094 275.546875 132.082031 275.886719 132.195312 C 276.566406 132.410156 277.234375 132.691406 277.828125 133.03125 C 278.425781 133.371094 278.949219 133.785156 279.390625 134.238281 C 279.503906 134.351562 279.601562 134.464844 279.703125 134.578125 L 279.84375 134.761719 C 279.886719 134.820312 279.945312 134.875 279.972656 134.945312 C 280.058594 135.074219 280.140625 135.1875 280.214844 135.328125 L 280.328125 135.527344 L 280.425781 135.726562 C 280.554688 135.996094 280.667969 136.277344 280.738281 136.578125 C 280.824219 136.875 280.878906 137.1875 280.921875 137.496094 C 280.949219 137.824219 280.964844 138.148438 280.964844 138.488281 C 280.964844 138.84375 280.9375 139.183594 280.894531 139.554688 Z M 280.894531 139.554688 " fill-opacity="1" fill-rule="nonzero"/></g></svg>